<!DOCTYPE svg PUBLIC "-//W3C//DTD SVG 1.1//EN" "http://www.w3.org/Graphics/SVG/1.1/DTD/svg11.dtd">
<!-- Uploaded to: SVG Repo, www.svgrepo.com, Transformed by: SVG Repo Mixer Tools -->
<svg width="256px" height="256px" viewBox="0 0 1000 1000" data-name="Layer 2" id="Layer_2" xmlns="http://www.w3.org/2000/svg" fill="#000000">
<g id="SVGRepo_bgCarrier" stroke-width="0"/>
<g id="SVGRepo_tracerCarrier" stroke-linecap="round" stroke-linejoin="round"/>
<g id="SVGRepo_iconCarrier">
<defs>
<style>.cls-1{fill:none;stroke:#020202;stroke-linecap:round;stroke-miterlimit:10;stroke-width:22px;}.cls-2{fill:#020202;}</style>
</defs>
<line class="cls-1" x1="618.87" x2="450.99" y1="717.53" y2="717.53"/>
<path class="cls-2" d="M475.18,366.43h49.64a8.31,8.31,0,0,1,8.28,8.28l-10,159A23.16,23.16,0,0,1,500,556.76h0a23.16,23.16,0,0,1-23.09-23.09l-10-159A8.31,8.31,0,0,1,475.18,366.43Z"/>
<circle class="cls-2" cx="500" cy="606.61" r="26.96"/>
<path class="cls-1" d="M379.25,717.53H273.61c-43,0-68.29-48.22-43.9-83.6L456.09,305.54c21.2-30.75,66.62-30.75,87.82,0L770.29,633.93c24.39,35.38-.93,83.6-43.9,83.6H690.62"/>
</g>
</svg>