<?xml version="1.0" standalone="no"?>
<!DOCTYPE svg PUBLIC "-//W3C//DTD SVG 20010904//EN"
 "http://www.w3.org/TR/2001/REC-SVG-20010904/DTD/svg10.dtd">
<svg version="1.0" xmlns="http://www.w3.org/2000/svg"
 width="512.000000pt" height="512.000000pt" viewBox="0 0 512.000000 512.000000"
 preserveAspectRatio="xMidYMid meet">

<g transform="translate(0.000000,512.000000) scale(0.100000,-0.100000)"
fill="#000000" stroke="none">
<path d="M2330 5110 c-494 -48 -950 -230 -1350 -538 -195 -150 -448 -432 -594
-662 -63 -99 -186 -351 -230 -471 -49 -134 -102 -340 -128 -499 -31 -195 -31
-565 0 -760 45 -276 116 -498 237 -745 132 -269 269 -460 489 -681 221 -220
412 -357 681 -489 247 -121 469 -192 745 -237 195 -31 565 -31 760 0 276 45
498 116 745 237 269 132 460 269 681 489 220 221 357 412 489 681 88 179 132
296 180 476 63 240 78 371 78 649 0 278 -15 409 -78 649 -48 180 -92 297 -180
476 -132 269 -269 460 -489 681 -221 220 -412 357 -681 489 -246 121 -474 193
-740 235 -147 23 -475 34 -615 20z m570 -185 c678 -100 1284 -488 1662 -1065
81 -124 192 -345 243 -484 48 -130 99 -332 121 -481 25 -167 25 -503 0 -670
-76 -505 -300 -960 -651 -1324 -306 -317 -701 -547 -1129 -656 -214 -54 -342
-69 -586 -69 -244 0 -372 15 -586 69 -174 44 -299 91 -469 175 -627 309 -1087
877 -1260 1554 -54 214 -69 342 -69 586 0 244 15 372 69 586 44 173 91 298
175 470 365 741 1083 1237 1915 1323 127 14 429 6 565 -14z"/>
<path d="M1901 3894 l-21 -27 0 -1307 0 -1307 21 -27 c16 -20 29 -26 58 -26
33 0 146 74 972 636 514 350 946 648 962 662 20 19 27 35 27 62 0 27 -7 43
-27 62 -16 14 -448 312 -962 662 -826 562 -939 636 -972 636 -29 0 -42 -6 -58
-26z m967 -774 c444 -303 807 -555 807 -560 0 -8 -1607 -1110 -1620 -1110 -3
0 -5 500 -5 1110 0 611 2 1110 5 1110 3 0 369 -248 813 -550z"/>
</g>
</svg>
